# xmcd
#
# Track frame offsets: 
#        150
#        15422
#        45705
#        70622
#        82062
#        106952
#        123460
#        144087
#        167930
#        219772
#        238442
#        261960
#        286872
#        307322
#
# Disc length: 4434 seconds
#
# Revision: 3
# Processed by: cddbd v1.5.1PL2 Copyright (c) Steve Scherf et al.
# Submitted via: ExactAudioCopy v0.95b3
#
DISCID=c811500e
DTITLE=刘星、沈非 - 孤芳自赏
DYEAR=2000
DGENRE=New Age
TTITLE0=无所事事
TTITLE1=山歌
TTITLE2=孤芳自赏
TTITLE3=回心转意
TTITLE4=异想天开（天地之间第6号 中阮二重奏）
TTITLE5=夜长梦多（天地之间第7号）
TTITLE6=心旷神怡
TTITLE7=随心所欲
TTITLE8=即兴曲
TTITLE9=水到渠成
TTITLE10=月光
TTITLE11=来日方长
TTITLE12=流连忘返
TTITLE13=心不在焉（天地之间第11号）
EXTD=YEAR: 2000
EXTT0=
EXTT1=
EXTT2=
EXTT3=
EXTT4=
EXTT5=
EXTT6=
EXTT7=
EXTT8=
EXTT9=
EXTT10=
EXTT11=
EXTT12=
EXTT13=
PLAYORDER=
